<svg width="164" height="164" viewBox="0 0 164 164" fill="none" xmlns="http://www.w3.org/2000/svg">
<circle cx="82" cy="82" r="80.5" stroke="white" stroke-width="3"/>
<circle cx="82" cy="82" r="76.5" stroke="white"/>
<line x1="12" y1="70.5" x2="152" y2="70.5" stroke="white"/>
<line x1="12" y1="70.5" x2="152" y2="70.5" stroke="white"/>
<line x1="12" y1="70.5" x2="152" y2="70.5" stroke="white"/>
<line x1="11.9928" y1="94.5" x2="152.007" y2="94.5" stroke="white"/>
<line x1="11.9928" y1="94.5" x2="152.007" y2="94.5" stroke="white"/>
<line x1="11.9928" y1="94.5" x2="152.007" y2="94.5" stroke="white"/>
<path d="M12.852 88.112C12.1053 88.112 11.4147 87.9907 10.78 87.748C10.1547 87.496 9.60867 87.146 9.142 86.698C8.68467 86.2407 8.32533 85.7087 8.064 85.102C7.80267 84.4953 7.672 83.828 7.672 83.1C7.672 82.372 7.80267 81.7047 8.064 81.098C8.32533 80.4913 8.68933 79.964 9.156 79.516C9.62267 79.0587 10.1687 78.7087 10.794 78.466C11.4287 78.214 12.1193 78.088 12.866 78.088C13.622 78.088 14.3173 78.2187 14.952 78.48C15.596 78.732 16.142 79.11 16.59 79.614L15.68 80.496C15.3067 80.104 14.8867 79.8147 14.42 79.628C13.9533 79.432 13.454 79.334 12.922 79.334C12.3713 79.334 11.858 79.4273 11.382 79.614C10.9153 79.8007 10.5093 80.062 10.164 80.398C9.81867 80.734 9.548 81.1353 9.352 81.602C9.16533 82.0593 9.072 82.5587 9.072 83.1C9.072 83.6413 9.16533 84.1453 9.352 84.612C9.548 85.0693 9.81867 85.466 10.164 85.802C10.5093 86.138 10.9153 86.3993 11.382 86.586C11.858 86.7727 12.3713 86.866 12.922 86.866C13.454 86.866 13.9533 86.7727 14.42 86.586C14.8867 86.39 15.3067 86.0913 15.68 85.69L16.59 86.572C16.142 87.076 15.596 87.4587 14.952 87.72C14.3173 87.9813 13.6173 88.112 12.852 88.112ZM19.8612 82.428H24.9012V83.618H19.8612V82.428ZM19.9872 86.782H25.6992V88H18.5872V78.2H25.5032V79.418H19.9872V86.782ZM27.9661 88V78.2H29.1141L35.5961 86.25H34.9941V78.2H36.3941V88H35.2461L28.7641 79.95H29.3661V88H27.9661ZM37.8434 88L42.2814 78.2H43.6674L48.1194 88H46.6494L42.6874 78.984H43.2474L39.2854 88H37.8434ZM39.7334 85.55L40.1114 84.43H45.6274L46.0334 85.55H39.7334ZM53.3411 88V78.2H54.4891L60.9711 86.25H60.3691V78.2H61.7691V88H60.6211L54.1391 79.95H54.7411V88H53.3411ZM64.7024 88V78.2H66.1024V88H64.7024ZM70.3104 82.428H75.3504V83.618H70.3104V82.428ZM70.4364 86.782H76.1484V88H69.0364V78.2H75.9524V79.418H70.4364V86.782ZM76.9313 88L81.3693 78.2H82.7553L87.2073 88H85.7373L81.7753 78.984H82.3353L78.3733 88H76.9313ZM78.8213 85.55L79.1993 84.43H84.7153L85.1213 85.55H78.8213ZM89.9012 85.634L89.8312 83.926L95.3892 78.2H96.9852L92.6872 82.736L91.9032 83.604L89.9012 85.634ZM88.6692 88V78.2H90.0692V88H88.6692ZM95.6132 88L91.5952 83.324L92.5332 82.288L97.2512 88H95.6132ZM100.076 88V79.418H96.7162V78.2H104.822V79.418H101.462V88H100.076ZM110.229 88.112C108.941 88.112 107.929 87.7433 107.191 87.006C106.454 86.2687 106.085 85.1907 106.085 83.772V78.2H107.485V83.716C107.485 84.808 107.723 85.606 108.199 86.11C108.685 86.614 109.366 86.866 110.243 86.866C111.13 86.866 111.811 86.614 112.287 86.11C112.773 85.606 113.015 84.808 113.015 83.716V78.2H114.373V83.772C114.373 85.1907 114.005 86.2687 113.267 87.006C112.539 87.7433 111.527 88.112 110.229 88.112ZM115.554 88L119.992 78.2H121.378L125.83 88H124.36L120.398 78.984H120.958L116.996 88H115.554ZM117.444 85.55L117.822 84.43H123.338L123.744 85.55H117.444ZM127.292 88V78.2H128.692V86.782H133.998V88H127.292ZM135.605 88V78.2H136.753L143.235 86.25H142.633V78.2H144.033V88H142.885L136.403 79.95H137.005V88H135.605ZM145.482 88L149.92 78.2H151.306L155.758 88H154.288L150.326 78.984H150.886L146.924 88H145.482ZM147.372 85.55L147.75 84.43H153.266L153.672 85.55H147.372Z" fill="white"/>
</svg>
