<svg width="48" height="48" viewBox="0 0 48 48" fill="none" xmlns="http://www.w3.org/2000/svg">
<g id="Nie ikona">
<rect id="Rectangle 105" width="48" height="48" fill="white"/>
<path id="Vector" d="M24 11C17.364 11 12 16.364 12 23C12 29.636 17.364 35 24 35C30.636 35 36 29.636 36 23C36 16.364 30.636 11 24 11ZM29.6484 26.9516C30.1176 27.4208 30.1176 28.1792 29.6484 28.6484C29.4144 28.8824 29.1072 29 28.8 29C28.4928 29 28.1856 28.8824 27.9516 28.6484L24 24.6968L20.0484 28.6484C19.8144 28.8824 19.5072 29 19.2 29C18.8928 29 18.5856 28.8824 18.3516 28.6484C17.8824 28.1792 17.8824 27.4208 18.3516 26.9516L22.3032 23L18.3516 19.0484C17.8824 18.5792 17.8824 17.8208 18.3516 17.3516C18.8208 16.8824 19.5792 16.8824 20.0484 17.3516L24 21.3032L27.9516 17.3516C28.4208 16.8824 29.1792 16.8824 29.6484 17.3516C30.1176 17.8208 30.1176 18.5792 29.6484 19.0484L25.6968 23L29.6484 26.9516Z" fill="#F7684D"/>
</g>
</svg>
