<svg width="47" height="48" viewBox="0 0 47 48" fill="none" xmlns="http://www.w3.org/2000/svg">
<rect x="0.5" y="0.5" width="45.6983" height="47" stroke="white"/>
<circle cx="23" cy="24" r="16" fill="#575656"/>
<path d="M23 15C23 14.4477 22.5523 14 22 14C21.4477 14 21 14.4477 21 15L23 15ZM21 15L21 26L23 26L23 15L21 15Z" fill="white"/>
<path d="M27.1829 31.3071C27.6206 31.6445 28.2393 31.5567 28.5648 31.1109C28.8903 30.6652 28.7994 30.0303 28.3617 29.6929L27.1829 31.3071ZM21.935 26L20.9474 25.9915L20.9474 26.5001L21.3456 26.8071L21.935 26ZM28.3617 29.6929L22.5244 25.1929L21.3456 26.8071L27.1829 31.3071L28.3617 29.6929ZM22.9226 26.0086L22.9227 25.0085L20.9474 24.9914L20.9474 25.9915L22.9226 26.0086Z" fill="white"/>
</svg>
