<svg width="48" height="48" viewBox="0 0 48 48" fill="none" xmlns="http://www.w3.org/2000/svg">
<g id="Tak ikona">
<rect id="Rectangle 104" width="48" height="48" fill="none"/>
<path id="Vector" d="M23 11C16.3724 11 11 16.3724 11 23C11 29.6276 16.3724 35 23 35C29.6276 35 35 29.6276 35 23C35 16.3724 29.6276 11 23 11ZM29.8484 20.2484L21.4484 28.6484C21.2144 28.8824 20.9072 29 20.6 29C20.2928 29 19.9856 28.8824 19.7516 28.6484L16.1516 25.0484C15.6824 24.5792 15.6824 23.8208 16.1516 23.3516C16.6208 22.8824 17.3792 22.8824 17.8484 23.3516L20.6 26.1032L28.1516 18.5516C28.6208 18.0824 29.3792 18.0824 29.8484 18.5516C30.3176 19.0208 30.3176 19.7792 29.8484 20.2484Z" fill="#A3EF97"/>
</g>
</svg>
