<svg width="23" height="24" viewBox="0 0 23 24" fill="none" xmlns="http://www.w3.org/2000/svg">
<g id="tune" clip-path="url(#clip0_974_347)">
<path id="Vector" d="M2.875 18C2.875 18.55 3.30625 19 3.83333 19H8.625V17H3.83333C3.30625 17 2.875 17.45 2.875 18ZM2.875 6C2.875 6.55 3.30625 7 3.83333 7H12.4583V5H3.83333C3.30625 5 2.875 5.45 2.875 6ZM12.4583 20V19H19.1667C19.6938 19 20.125 18.55 20.125 18C20.125 17.45 19.6938 17 19.1667 17H12.4583V16C12.4583 15.45 12.0271 15 11.5 15C10.9729 15 10.5417 15.45 10.5417 16V20C10.5417 20.55 10.9729 21 11.5 21C12.0271 21 12.4583 20.55 12.4583 20ZM6.70833 10V11H3.83333C3.30625 11 2.875 11.45 2.875 12C2.875 12.55 3.30625 13 3.83333 13H6.70833V14C6.70833 14.55 7.13958 15 7.66667 15C8.19375 15 8.625 14.55 8.625 14V10C8.625 9.45 8.19375 9 7.66667 9C7.13958 9 6.70833 9.45 6.70833 10ZM20.125 12C20.125 11.45 19.6938 11 19.1667 11H10.5417V13H19.1667C19.6938 13 20.125 12.55 20.125 12ZM15.3333 9C15.8604 9 16.2917 8.55 16.2917 8V7H19.1667C19.6938 7 20.125 6.55 20.125 6C20.125 5.45 19.6938 5 19.1667 5H16.2917V4C16.2917 3.45 15.8604 3 15.3333 3C14.8062 3 14.375 3.45 14.375 4V8C14.375 8.55 14.8062 9 15.3333 9Z" fill="#323232"/>
</g>
<defs>
<clipPath id="clip0_974_347">
<rect width="23" height="24" fill="white"/>
</clipPath>
</defs>
</svg>
