<svg width="47" height="48" viewBox="0 0 47 48" fill="none" xmlns="http://www.w3.org/2000/svg">
<g id="telefon ikona">
<rect id="Rectangle 106" width="46.6983" height="48" fill="#F9FEFB"/>
<path id="Ellipse 1" d="M35.4966 24.5C35.4966 31.1405 30.2629 36.5 23.8356 36.5C17.4082 36.5 12.1746 31.1405 12.1746 24.5C12.1746 17.8595 17.4082 12.5 23.8356 12.5C30.2629 12.5 35.4966 17.8595 35.4966 24.5Z" fill="#929EC8" stroke="#929EC8"/>
<path id="Vector" d="M26.5297 17H21.1415C20.212 17 19.4576 17.7636 19.4576 18.7045V30.2955C19.4576 31.2364 20.212 32 21.1415 32H26.5297C27.4592 32 28.2136 31.2364 28.2136 30.2955V18.7045C28.2136 17.7636 27.4592 17 26.5297 17ZM23.8356 31.3182C23.2766 31.3182 22.8253 30.8614 22.8253 30.2955C22.8253 29.7295 23.2766 29.2727 23.8356 29.2727C24.3946 29.2727 24.8459 29.7295 24.8459 30.2955C24.8459 30.8614 24.3946 31.3182 23.8356 31.3182ZM26.8665 28.5909H20.8047V19.0455H26.8665V28.5909Z" fill="white"/>
<g id="marker">
<path id="Ellipse 3" d="M25.7814 23C25.7814 24.5 24.8085 26 23.8356 27C22.8627 26 21.8898 25 21.8898 23C21.8898 21 23.8356 21 23.8356 21C23.8356 21 25.7814 21 25.7814 23Z" fill="white"/>
<path id="Ellipse 5" d="M24.8085 23.5C24.8085 24 24.322 24.5 23.8356 24.5C23.3491 24.5 22.8627 24 22.8627 23.5C22.8627 23 23.3491 22.5 23.8356 22.5C24.365 22.5 24.8085 23 24.8085 23.5Z" fill="#929EC8"/>
</g>
</g>
</svg>
