<svg width="48" height="48" viewBox="0 0 48 48" fill="none" xmlns="http://www.w3.org/2000/svg">
<rect width="48" height="48" fill="white"/>
<path d="M28.6667 22.6666C29.7713 22.6666 30.6667 21.7712 30.6667 20.6666C30.6667 19.5621 29.7713 18.6666 28.6667 18.6666C27.5622 18.6666 26.6667 19.5621 26.6667 20.6666C26.6667 21.7712 27.5622 22.6666 28.6667 22.6666Z" fill="#A3EF97"/>
<path d="M19.3333 22.6666C20.4378 22.6666 21.3333 21.7712 21.3333 20.6666C21.3333 19.5621 20.4378 18.6666 19.3333 18.6666C18.2287 18.6666 17.3333 19.5621 17.3333 20.6666C17.3333 21.7712 18.2287 22.6666 19.3333 22.6666Z" fill="#A3EF97"/>
<path d="M23.9867 10.6666C16.6267 10.6666 10.6667 16.64 10.6667 24C10.6667 31.36 16.6267 37.3333 23.9867 37.3333C31.3601 37.3333 37.3334 31.36 37.3334 24C37.3334 16.64 31.3601 10.6666 23.9867 10.6666ZM24.0001 34.6666C18.1067 34.6666 13.3334 29.8933 13.3334 24C13.3334 18.1066 18.1067 13.3333 24.0001 13.3333C29.8934 13.3333 34.6667 18.1066 34.6667 24C34.6667 29.8933 29.8934 34.6666 24.0001 34.6666ZM29.8801 26.52C29.4134 26.2266 28.7867 26.3733 28.5067 26.84C27.5201 28.4 25.8401 29.3333 24.0001 29.3333C22.1601 29.3333 20.4801 28.4 19.4934 26.8266C19.2001 26.36 18.5867 26.2133 18.1201 26.5066C17.6534 26.8 17.5067 27.4133 17.8001 27.88C19.1601 30.0533 21.4667 31.3333 24.0001 31.3333C26.5334 31.3333 28.8401 30.04 30.2001 27.8933C30.4934 27.4266 30.3467 26.8133 29.8801 26.52Z" fill="#A3EF97"/>
</svg>
