<svg width="19" height="18" viewBox="0 0 19 18" fill="none" xmlns="http://www.w3.org/2000/svg">
<rect x="1.94995" y="1" width="16.05" height="16" rx="2" stroke="#575656" stroke-width="2"/>
<path d="M1.22947 9.09269H8.69167L6.1057 11.985C5.89903 12.2162 5.89903 12.5955 6.1057 12.8266C6.31236 13.0578 6.64621 13.0578 6.85287 12.8266L10.345 8.92081C10.5517 8.68966 10.5517 8.31627 10.345 8.08512L6.85817 4.17336C6.65151 3.94221 6.31766 3.94221 6.111 4.17336C5.90433 4.40451 5.90433 4.77791 6.111 5.00906L8.69167 7.90731H1.16088C0.86943 7.90731 1.06307 8.17402 1.06307 8.5C1.06307 8.82598 0.938022 9.09269 1.22947 9.09269Z" fill="#575656"/>
</svg>
