<svg width="23" height="24" viewBox="0 0 23 24" fill="none" xmlns="http://www.w3.org/2000/svg">
<rect x="4" y="4" width="15.05" height="16" rx="2" stroke="#575656" stroke-width="2"/>
<path d="M3.26412 12.0927H10.3129L7.87019 14.985C7.67498 15.2162 7.67498 15.5955 7.87019 15.8266C8.06541 16.0578 8.38076 16.0578 8.57598 15.8266L11.8746 11.9208C12.0699 11.6897 12.0699 11.3163 11.8746 11.0851L8.58098 7.17336C8.38577 6.94221 8.07042 6.94221 7.8752 7.17336C7.67998 7.40451 7.67998 7.77791 7.8752 8.00906L10.3129 10.9073H3.19933C2.92403 10.9073 3.10694 11.174 3.10694 11.5C3.10694 11.826 2.98882 12.0927 3.26412 12.0927Z" fill="#575656"/>
</svg>
