<svg width="39" height="21" viewBox="0 0 39 21" fill="none" xmlns="http://www.w3.org/2000/svg">
<path d="M8.40341 20L6.40909 13.4545H7.46591L8.88068 18.4659H8.94886L10.3466 13.4545H11.4205L12.8011 18.4489H12.8693L14.2841 13.4545H15.3409L13.3466 20H12.358L10.9261 14.9716H10.8239L9.39205 20H8.40341ZM19.1921 20.1364C18.5614 20.1364 18.0174 19.9972 17.56 19.7188C17.1055 19.4375 16.7546 19.0455 16.5075 18.5426C16.2631 18.0369 16.141 17.4489 16.141 16.7784C16.141 16.108 16.2631 15.517 16.5075 15.0057C16.7546 14.4915 17.0984 14.0909 17.5387 13.804C17.9819 13.5142 18.4989 13.3693 19.0898 13.3693C19.4308 13.3693 19.7674 13.4261 20.0998 13.5398C20.4322 13.6534 20.7347 13.8381 21.0075 14.0938C21.2802 14.3466 21.4975 14.6818 21.6594 15.0994C21.8214 15.517 21.9023 16.0312 21.9023 16.642V17.0682H16.8569V16.1989H20.8796C20.8796 15.8295 20.8058 15.5 20.658 15.2102C20.5131 14.9205 20.3058 14.6918 20.0359 14.5241C19.7688 14.3565 19.4535 14.2727 19.0898 14.2727C18.6893 14.2727 18.3427 14.3722 18.0501 14.571C17.7603 14.767 17.5373 15.0227 17.381 15.3381C17.2248 15.6534 17.1467 15.9915 17.1467 16.3523V16.9318C17.1467 17.4261 17.2319 17.8452 17.4023 18.1889C17.5756 18.5298 17.8157 18.7898 18.1225 18.9688C18.4293 19.1449 18.7859 19.233 19.1921 19.233C19.4563 19.233 19.695 19.196 19.908 19.1222C20.1239 19.0455 20.31 18.9318 20.4663 18.7812C20.6225 18.6278 20.7433 18.4375 20.8285 18.2102L21.8001 18.483C21.6978 18.8125 21.5259 19.1023 21.2844 19.3523C21.043 19.5994 20.7447 19.7926 20.3896 19.9318C20.0344 20.0682 19.6353 20.1364 19.1921 20.1364ZM26.1765 20.1364C25.5458 20.1364 25.0018 19.9972 24.5444 19.7188C24.0898 19.4375 23.739 19.0455 23.4918 18.5426C23.2475 18.0369 23.1254 17.4489 23.1254 16.7784C23.1254 16.108 23.2475 15.517 23.4918 15.0057C23.739 14.4915 24.0827 14.0909 24.5231 13.804C24.9663 13.5142 25.4833 13.3693 26.0742 13.3693C26.4151 13.3693 26.7518 13.4261 27.0842 13.5398C27.4165 13.6534 27.7191 13.8381 27.9918 14.0938C28.2646 14.3466 28.4819 14.6818 28.6438 15.0994C28.8058 15.517 28.8867 16.0312 28.8867 16.642V17.0682H23.8413V16.1989H27.864C27.864 15.8295 27.7901 15.5 27.6424 15.2102C27.4975 14.9205 27.2901 14.6918 27.0202 14.5241C26.7532 14.3565 26.4379 14.2727 26.0742 14.2727C25.6737 14.2727 25.3271 14.3722 25.0344 14.571C24.7447 14.767 24.5217 15.0227 24.3654 15.3381C24.2092 15.6534 24.131 15.9915 24.131 16.3523V16.9318C24.131 17.4261 24.2163 17.8452 24.3867 18.1889C24.56 18.5298 24.8001 18.7898 25.1069 18.9688C25.4137 19.1449 25.7702 19.233 26.1765 19.233C26.4407 19.233 26.6793 19.196 26.8924 19.1222C27.1083 19.0455 27.2944 18.9318 27.4506 18.7812C27.6069 18.6278 27.7276 18.4375 27.8129 18.2102L28.7844 18.483C28.6822 18.8125 28.5103 19.1023 28.2688 19.3523C28.0273 19.5994 27.729 19.7926 27.3739 19.9318C27.0188 20.0682 26.6197 20.1364 26.1765 20.1364Z" fill="black"/>
<path d="M3.87784 13.1477C3.21307 13.1477 2.64063 12.9908 2.16051 12.6768C1.6804 12.3629 1.31108 11.9305 1.05256 11.3796C0.794034 10.8287 0.664773 10.1993 0.664773 9.49148C0.664773 8.77131 0.797112 8.13577 1.06179 7.58487C1.32955 7.03089 1.70194 6.59848 2.17898 6.28764C2.65909 5.97372 3.21922 5.81676 3.85938 5.81676C4.35795 5.81676 4.80729 5.90909 5.20739 6.09375C5.60748 6.27841 5.93525 6.53693 6.1907 6.86932C6.44614 7.2017 6.60464 7.58949 6.66619 8.03267H5.5767C5.49361 7.70952 5.30895 7.4233 5.02273 7.17401C4.73958 6.92164 4.35795 6.79545 3.87784 6.79545C3.45313 6.79545 3.08073 6.90625 2.76065 7.12784C2.44366 7.34635 2.1959 7.65566 2.0174 8.05575C1.84197 8.45277 1.75426 8.91903 1.75426 9.45455C1.75426 10.0024 1.84044 10.4794 2.01278 10.8857C2.18821 11.2919 2.43442 11.6074 2.75142 11.832C3.0715 12.0567 3.44697 12.169 3.87784 12.169C4.16098 12.169 4.41797 12.1198 4.64879 12.0213C4.87962 11.9228 5.07505 11.7812 5.23509 11.5966C5.39512 11.4119 5.509 11.1903 5.5767 10.9318H6.66619C6.60464 11.3504 6.4523 11.7274 6.20916 12.0629C5.96911 12.3952 5.65057 12.6599 5.25355 12.8569C4.85961 13.0508 4.40104 13.1477 3.87784 13.1477ZM9.34837 8.73438V13H8.25888V3.54545H9.34837V7.01705H9.4407C9.60689 6.6508 9.85618 6.35997 10.1886 6.14453C10.524 5.92602 10.9703 5.81676 11.5273 5.81676C12.0105 5.81676 12.4337 5.91371 12.7969 6.1076C13.16 6.29841 13.4416 6.59233 13.6417 6.98935C13.8448 7.38329 13.9464 7.88494 13.9464 8.49432V13H12.8569V8.56818C12.8569 8.00497 12.7107 7.56948 12.4183 7.26172C12.129 6.95088 11.7274 6.79545 11.2134 6.79545C10.8564 6.79545 10.5363 6.87086 10.2532 7.02166C9.97313 7.17247 9.75154 7.39252 9.58842 7.68182C9.42839 7.97112 9.34837 8.32197 9.34837 8.73438ZM18.9126 13.1477C18.2293 13.1477 17.6399 12.9969 17.1444 12.6953C16.652 12.3906 16.2719 11.9659 16.0042 11.4212C15.7395 10.8733 15.6072 10.2363 15.6072 9.50994C15.6072 8.78362 15.7395 8.14347 16.0042 7.58949C16.2719 7.03243 16.6443 6.59848 17.1214 6.28764C17.6015 5.97372 18.1616 5.81676 18.8018 5.81676C19.1711 5.81676 19.5358 5.87831 19.8959 6.00142C20.2559 6.12453 20.5837 6.32457 20.8792 6.60156C21.1746 6.87547 21.4101 7.23864 21.5855 7.69105C21.7609 8.14347 21.8486 8.70052 21.8486 9.36222V9.82386H16.3827V8.8821H20.7407C20.7407 8.48201 20.6607 8.125 20.5006 7.81108C20.3437 7.49716 20.119 7.24941 19.8266 7.06783C19.5373 6.88625 19.1957 6.79545 18.8018 6.79545C18.3678 6.79545 17.9923 6.90317 17.6753 7.11861C17.3614 7.33097 17.1198 7.60795 16.9506 7.94957C16.7813 8.29119 16.6966 8.65743 16.6966 9.0483V9.67614C16.6966 10.2116 16.789 10.6656 16.9736 11.038C17.1614 11.4073 17.4214 11.6889 17.7538 11.8828C18.0862 12.0736 18.4724 12.169 18.9126 12.169C19.1988 12.169 19.4573 12.129 19.6881 12.049C19.922 11.9659 20.1236 11.8428 20.2929 11.6797C20.4622 11.5135 20.593 11.3073 20.6853 11.0611L21.7378 11.3565C21.627 11.7135 21.4408 12.0275 21.1792 12.2983C20.9176 12.5661 20.5945 12.7753 20.2098 12.9261C19.8251 13.0739 19.3927 13.1477 18.9126 13.1477ZM25.5926 13.1662C25.1433 13.1662 24.7355 13.0816 24.3692 12.9123C24.003 12.7399 23.7122 12.4922 23.4967 12.169C23.2813 11.8428 23.1736 11.4489 23.1736 10.9872C23.1736 10.581 23.2536 10.2517 23.4136 9.99929C23.5737 9.74384 23.7876 9.5438 24.0553 9.39915C24.3231 9.2545 24.6185 9.14678 24.9417 9.07599C25.2679 9.00213 25.5957 8.94366 25.925 8.90057C26.3559 8.84517 26.7052 8.80362 26.9729 8.77592C27.2438 8.74515 27.4407 8.69437 27.5638 8.62358C27.69 8.55279 27.7531 8.42969 27.7531 8.25426V8.21733C27.7531 7.76184 27.6285 7.40791 27.3792 7.15554C27.133 6.90317 26.759 6.77699 26.2574 6.77699C25.7372 6.77699 25.3295 6.89086 25.034 7.11861C24.7385 7.34635 24.5308 7.58949 24.4108 7.84801L23.3767 7.47869C23.5613 7.04782 23.8076 6.71236 24.1153 6.4723C24.4262 6.22917 24.7647 6.0599 25.1309 5.96449C25.5003 5.866 25.8634 5.81676 26.2204 5.81676C26.4482 5.81676 26.7098 5.84446 27.0052 5.89986C27.3038 5.95218 27.5915 6.06143 27.8685 6.22763C28.1486 6.39382 28.3809 6.64465 28.5656 6.98011C28.7503 7.31558 28.8426 7.76491 28.8426 8.32812V13H27.7531V12.0398H27.6977C27.6238 12.1937 27.5007 12.3583 27.3284 12.5337C27.156 12.7092 26.9268 12.8584 26.6405 12.9815C26.3543 13.1046 26.005 13.1662 25.5926 13.1662ZM25.7588 12.1875C26.1897 12.1875 26.5528 12.1029 26.8483 11.9336C27.1468 11.7643 27.3715 11.5458 27.5223 11.2781C27.6762 11.0103 27.7531 10.7287 27.7531 10.4332V9.43608C27.7069 9.49148 27.6054 9.54226 27.4484 9.58842C27.2945 9.63151 27.116 9.66998 26.9129 9.70383C26.7129 9.73461 26.5174 9.76231 26.3266 9.78693C26.1389 9.80848 25.9865 9.82694 25.8696 9.84233C25.5864 9.87926 25.3218 9.93928 25.0756 10.0224C24.8324 10.1024 24.6354 10.224 24.4846 10.3871C24.3369 10.5471 24.2631 10.7656 24.2631 11.0426C24.2631 11.4212 24.4031 11.7074 24.6831 11.9013C24.9663 12.0921 25.3248 12.1875 25.7588 12.1875Z" fill="black"/>
<path d="M30.8311 15.6591V5.90909H31.8837V7.03551H32.013C32.093 6.91241 32.2038 6.75544 32.3453 6.56463C32.49 6.37074 32.6962 6.19839 32.964 6.04759C33.2348 5.8937 33.601 5.81676 34.0627 5.81676C34.6597 5.81676 35.186 5.96603 35.6415 6.26456C36.097 6.56309 36.4525 6.98627 36.7079 7.53409C36.9634 8.08191 37.0911 8.72822 37.0911 9.47301C37.0911 10.224 36.9634 10.8749 36.7079 11.4258C36.4525 11.9736 36.0985 12.3983 35.6461 12.6999C35.1937 12.9985 34.6721 13.1477 34.0811 13.1477C33.6257 13.1477 33.2609 13.0723 32.987 12.9215C32.7131 12.7676 32.5023 12.5937 32.3546 12.3999C32.2069 12.2029 32.093 12.0398 32.013 11.9105H31.9206V15.6591H30.8311ZM31.9022 9.45455C31.9022 9.99006 31.9806 10.4625 32.1376 10.8718C32.2946 11.2781 32.5239 11.5966 32.8255 11.8274C33.1271 12.0552 33.4964 12.169 33.9334 12.169C34.3889 12.169 34.769 12.049 35.0737 11.8089C35.3815 11.5658 35.6123 11.2396 35.7662 10.8303C35.9231 10.4179 36.0016 9.95928 36.0016 9.45455C36.0016 8.95597 35.9247 8.50663 35.7708 8.10653C35.62 7.70336 35.3907 7.38482 35.0829 7.15092C34.7782 6.91394 34.3951 6.79545 33.9334 6.79545C33.4902 6.79545 33.1178 6.90779 32.8162 7.13246C32.5146 7.35405 32.2869 7.66489 32.133 8.06499C31.9791 8.462 31.9022 8.92519 31.9022 9.45455Z" fill="#A3EF97"/>
<path d="M33.392 20.1364C32.8466 20.1364 32.3651 19.9986 31.9474 19.723C31.5298 19.4446 31.2031 19.0526 30.9673 18.5469C30.7315 18.0384 30.6136 17.4375 30.6136 16.7443C30.6136 16.0568 30.7315 15.4602 30.9673 14.9545C31.2031 14.4489 31.5313 14.0582 31.9517 13.7827C32.3722 13.5071 32.858 13.3693 33.4091 13.3693C33.8352 13.3693 34.1719 13.4403 34.419 13.5824C34.669 13.7216 34.8594 13.8807 34.9901 14.0597C35.1236 14.2358 35.2273 14.3807 35.3011 14.4943H35.3864V11.2727H36.392V20H35.4205V18.9943H35.3011C35.2273 19.1136 35.1222 19.2642 34.9858 19.446C34.8494 19.625 34.6548 19.7855 34.402 19.9276C34.1491 20.0668 33.8125 20.1364 33.392 20.1364ZM33.5284 19.233C33.9318 19.233 34.2727 19.1278 34.5511 18.9176C34.8295 18.7045 35.0412 18.4105 35.1861 18.0355C35.331 17.6577 35.4034 17.2216 35.4034 16.7273C35.4034 16.2386 35.3324 15.8111 35.1903 15.4446C35.0483 15.0753 34.8381 14.7884 34.5597 14.5838C34.2813 14.3764 33.9375 14.2727 33.5284 14.2727C33.1023 14.2727 32.7472 14.3821 32.4631 14.6009C32.1818 14.8168 31.9702 15.1108 31.8281 15.483C31.6889 15.8523 31.6193 16.267 31.6193 16.7273C31.6193 17.1932 31.6903 17.6165 31.8324 17.9972C31.9773 18.375 32.1903 18.6761 32.4716 18.9006C32.7557 19.1222 33.108 19.233 33.5284 19.233Z" fill="#A3EF97"/>
</svg>
