<svg width="48" height="48" viewBox="0 0 48 48" fill="none" xmlns="http://www.w3.org/2000/svg">
<g id="more ikona">
<rect id="Rectangle 107" width="48" height="48" fill="white"/>
<circle id="Ellipse 2" cx="25.5" cy="23.5" r="12.5" fill="#929EC8"/>
<path id="Vector" d="M19.125 22C17.9562 22 17 22.9 17 24C17 25.1 17.9562 26 19.125 26C20.2938 26 21.25 25.1 21.25 24C21.25 22.9 20.2938 22 19.125 22ZM31.875 22C30.7063 22 29.75 22.9 29.75 24C29.75 25.1 30.7063 26 31.875 26C33.0438 26 34 25.1 34 24C34 22.9 33.0438 22 31.875 22ZM25.5 22C24.3313 22 23.375 22.9 23.375 24C23.375 25.1 24.3313 26 25.5 26C26.6687 26 27.625 25.1 27.625 24C27.625 22.9 26.6687 22 25.5 22Z" fill="white"/>
</g>
</svg>
