<svg width="48" height="48" viewBox="0 0 48 48" fill="none" xmlns="http://www.w3.org/2000/svg">
<rect width="48" height="48" fill="white"/>
<path d="M14.8267 23.3867C16.7467 27.16 19.84 30.24 23.6133 32.1733L26.5467 29.24C26.9067 28.88 27.44 28.76 27.9067 28.92C29.4 29.4133 31.0133 29.68 32.6667 29.68C33.4 29.68 34 30.28 34 31.0133V35.6667C34 36.4 33.4 37 32.6667 37C20.1467 37 10 26.8533 10 14.3333C10 13.6 10.6 13 11.3333 13H16C16.7333 13 17.3333 13.6 17.3333 14.3333C17.3333 16 17.6 17.6 18.0933 19.0933C18.24 19.56 18.1333 20.08 17.76 20.4533L14.8267 23.3867Z" fill="#262626"/>
</svg>
