<svg width="48" height="48" viewBox="0 0 48 48" fill="none" xmlns="http://www.w3.org/2000/svg">
<circle cx="24.5" cy="24.5" r="12.5" fill="#06492D"/>
<path d="M27.2692 17H21.7308C20.7754 17 20 17.7636 20 18.7045V30.2955C20 31.2364 20.7754 32 21.7308 32H27.2692C28.2246 32 29 31.2364 29 30.2955V18.7045C29 17.7636 28.2246 17 27.2692 17ZM24.5 31.3182C23.9254 31.3182 23.4615 30.8614 23.4615 30.2955C23.4615 29.7295 23.9254 29.2727 24.5 29.2727C25.0746 29.2727 25.5385 29.7295 25.5385 30.2955C25.5385 30.8614 25.0746 31.3182 24.5 31.3182ZM27.6154 28.5909H21.3846V19.0455H27.6154V28.5909Z" fill="white"/>
</svg>
