<svg width="47" height="48" viewBox="0 0 47 48" fill="none" xmlns="http://www.w3.org/2000/svg">
<circle cx="23" cy="24" r="15.5" fill="#4A74E7" stroke="#4A74E7"/>
<path d="M25.5297 17H20.1415C19.212 17 18.4576 17.7636 18.4576 18.7045V30.2955C18.4576 31.2364 19.212 32 20.1415 32H25.5297C26.4592 32 27.2136 31.2364 27.2136 30.2955V18.7045C27.2136 17.7636 26.4592 17 25.5297 17ZM22.8356 31.3182C22.2766 31.3182 21.8253 30.8614 21.8253 30.2955C21.8253 29.7295 22.2766 29.2727 22.8356 29.2727C23.3946 29.2727 23.8459 29.7295 23.8459 30.2955C23.8459 30.8614 23.3946 31.3182 22.8356 31.3182ZM25.8665 28.5909H19.8047V19.0455H25.8665V28.5909Z" fill="white"/>
</svg>
