<svg width="32" height="32" viewBox="0 0 32 32" fill="none" xmlns="http://www.w3.org/2000/svg">
<path d="M20.2106 15.1579C21.1407 15.1579 21.8948 14.0268 21.8948 12.6316C21.8948 11.2364 21.1407 10.1053 20.2106 10.1053C19.2804 10.1053 18.5264 11.2364 18.5264 12.6316C18.5264 14.0268 19.2804 15.1579 20.2106 15.1579Z" fill="#FF5F42"/>
<path d="M11.7894 15.1579C12.7196 15.1579 13.4736 14.0268 13.4736 12.6316C13.4736 11.2364 12.7196 10.1053 11.7894 10.1053C10.8593 10.1053 10.1052 11.2364 10.1052 12.6316C10.1052 14.0268 10.8593 15.1579 11.7894 15.1579Z" fill="#FF5F42"/>
<path d="M15.9874 3.36841C9.01472 3.36841 3.36841 9.02736 3.36841 16C3.36841 22.9726 9.01472 28.6316 15.9874 28.6316C22.9726 28.6316 28.6316 22.9726 28.6316 16C28.6316 9.02736 22.9726 3.36841 15.9874 3.36841ZM16 26.1053C10.4168 26.1053 5.89472 21.5831 5.89472 16C5.89472 10.4168 10.4168 5.89472 16 5.89472C21.5831 5.89472 26.1053 10.4168 26.1053 16C26.1053 21.5831 21.5831 26.1053 16 26.1053ZM16 18.5263C13.6 18.5263 11.4147 19.7516 10.1263 21.7852C9.84841 22.2274 9.98736 22.8084 10.4295 23.0863C10.8716 23.3642 11.4526 23.2253 11.7305 22.7831C12.6653 21.2926 14.2568 20.4084 16 20.4084C17.7431 20.4084 19.3347 21.2926 20.2695 22.7831C20.4463 23.0737 20.7621 23.2252 21.0779 23.2252C21.2547 23.2252 21.4189 23.1747 21.5831 23.0863C22.0253 22.8084 22.1642 22.2274 21.8863 21.7852C20.5853 19.7389 18.4 18.5263 16 18.5263Z" fill="#FF5F42"/>
</svg>
