<svg width="48" height="48" viewBox="0 0 48 48" fill="none" xmlns="http://www.w3.org/2000/svg">
<rect width="48" height="48" fill="white"/>
<path d="M28.2105 23.1579C29.1407 23.1579 29.8947 22.0268 29.8947 20.6316C29.8947 19.2364 29.1407 18.1053 28.2105 18.1053C27.2804 18.1053 26.5263 19.2364 26.5263 20.6316C26.5263 22.0268 27.2804 23.1579 28.2105 23.1579Z" fill="#FF5F42"/>
<path d="M19.7894 23.1579C20.7196 23.1579 21.4736 22.0268 21.4736 20.6316C21.4736 19.2364 20.7196 18.1053 19.7894 18.1053C18.8593 18.1053 18.1052 19.2364 18.1052 20.6316C18.1052 22.0268 18.8593 23.1579 19.7894 23.1579Z" fill="#FF5F42"/>
<path d="M23.9874 11.3684C17.0147 11.3684 11.3684 17.0274 11.3684 24C11.3684 30.9726 17.0147 36.6316 23.9874 36.6316C30.9726 36.6316 36.6316 30.9726 36.6316 24C36.6316 17.0274 30.9726 11.3684 23.9874 11.3684ZM24 34.1053C18.4168 34.1053 13.8947 29.5831 13.8947 24C13.8947 18.4168 18.4168 13.8947 24 13.8947C29.5831 13.8947 34.1053 18.4168 34.1053 24C34.1053 29.5831 29.5831 34.1053 24 34.1053ZM24 26.5263C21.6 26.5263 19.4147 27.7516 18.1263 29.7852C17.8484 30.2274 17.9874 30.8084 18.4295 31.0863C18.8716 31.3642 19.4526 31.2253 19.7305 30.7831C20.6653 29.2926 22.2568 28.4084 24 28.4084C25.7431 28.4084 27.3347 29.2926 28.2695 30.7831C28.4463 31.0737 28.7621 31.2252 29.0779 31.2252C29.2547 31.2252 29.4189 31.1747 29.5831 31.0863C30.0253 30.8084 30.1642 30.2274 29.8863 29.7852C28.5853 27.7389 26.4 26.5263 24 26.5263Z" fill="#FF5F42"/>
</svg>
