<svg width="16" height="14" viewBox="0 0 16 14" fill="none" xmlns="http://www.w3.org/2000/svg">
<g id="&#240;&#159;&#166;&#134; icon &#34;search&#34;">
<path id="Vector" d="M15.4533 11.1663L12.7505 8.80673L10.6716 8.0569C11.3638 7.19751 11.7346 6.17227 11.7333 5.12168C11.7333 2.29757 9.10155 0 5.86665 0C2.63176 0 0 2.29757 0 5.12168C0 7.94579 2.63176 10.2434 5.86665 10.2434C7.08053 10.2446 8.26461 9.91521 9.25395 9.30118L10.1106 11.1112L12.8133 13.4709C12.9866 13.6223 13.1924 13.7423 13.4189 13.8242C13.6454 13.9061 13.8881 13.9483 14.1332 13.9483C14.3784 13.9483 14.6211 13.9061 14.8476 13.8242C15.0741 13.7424 15.2799 13.6223 15.4532 13.471C15.6266 13.3197 15.7641 13.14 15.8579 12.9423C15.9517 12.7446 16 12.5327 16 12.3187C16 12.1047 15.9517 11.8927 15.8579 11.695C15.7641 11.4973 15.6266 11.3176 15.4533 11.1663ZM1.06666 5.12168C1.06666 2.8111 3.21999 0.931215 5.86665 0.931215C8.51331 0.931215 10.6666 2.8111 10.6666 5.12168C10.6666 7.43226 8.51331 9.31215 5.86665 9.31215C3.21999 9.31215 1.06666 7.43226 1.06666 5.12168ZM14.699 12.8125C14.5488 12.9433 14.3454 13.0167 14.1333 13.0167C13.9212 13.0167 13.7178 12.9433 13.5676 12.8125L11.0152 10.5842L10.2187 8.90116L12.1466 9.59649L14.6991 11.8248C14.8489 11.9559 14.933 12.1335 14.933 12.3186C14.9329 12.5038 14.8488 12.6814 14.699 12.8125Z" fill="black"/>
</g>
</svg>
